# xmcd
# 
# Track frame offsets:
#     150
#     16526
#     34964
#     52253
#     71670
#     91237
#     108470
#     129733
#     148136
#     168222
#     185643
# 
# Disc length: 2770
# 
# Revision: 0
# Processed by: cddbd v1.5.2PL0 Copyright (c) Steve Scherf et al.
# Submitted via: BonkEnc v1.0.15
# 
DISCID=9c0ad00b
DTITLE=Rascal Flatts - Unstoppable (Olympics Mix)
DYEAR=2009
DGENRE=Country
TTITLE0=Love Who You love
TTITLE1=Here Come Goodbye
TTITLE2=Close
TTITLE3=Forever
TTITLE4=She'd Be California
TTITLE5=Unstoppable
TTITLE6=Things That Matter
TTITLE7=Summer Nights
TTITLE8=Holdin' On
TTITLE9=Once
TTITLE10=Why
EXTD=
EXTT0=
EXTT1=
EXTT2=
EXTT3=
EXTT4=
EXTT5=
EXTT6=
EXTT7=
EXTT8=
EXTT9=
EXTT10=
PLAYORDER=
